<svg width="33" height="33" viewBox="0 0 33 33" fill="none" xmlns="http://www.w3.org/2000/svg">
<path d="M33 16.4568C33 15.4202 32.2096 14.5563 31.2611 14.5563C30.3126 14.5563 29.5222 15.4202 29.5222 16.4568C29.5222 17.4935 30.3126 18.3573 31.2611 18.3573C32.2096 18.4005 33 17.5367 33 16.4568ZM32.012 10.8416C31.7353 9.97775 30.9054 9.50262 30.115 9.80498C29.3246 10.1073 28.8898 11.0144 29.1665 11.8783C29.4431 12.7421 30.2731 13.2173 31.0635 12.9149C31.8539 12.6558 32.2491 11.7055 32.012 10.8416ZM29.7198 6.52225C29.3246 5.87435 28.5341 5.74477 27.9413 6.17671C27.3485 6.60865 27.2299 7.47252 27.6252 8.12043C28.0204 8.76833 28.8108 8.9411 29.4036 8.46597C29.9569 8.03403 30.115 7.17016 29.7198 6.52225ZM26.5186 3.23953C26.0443 2.80759 25.3725 2.89398 24.9772 3.4123C24.582 3.93063 24.6611 4.70812 25.1353 5.09687C25.6096 5.5288 26.321 5.44241 26.6766 4.92408C27.0323 4.40576 26.9928 3.67147 26.5186 3.23953ZM22.9617 1.25262C22.5269 1.03665 21.9737 1.25262 21.776 1.72775C21.5784 2.20288 21.776 2.80759 22.2108 3.02356C22.6455 3.23953 23.1988 3.02356 23.3964 2.54843C23.6335 2.0301 23.4359 1.46858 22.9617 1.25262ZM19.6024 0.259165C19.1677 0.172778 18.7725 0.43194 18.6934 0.907071C18.6144 1.3822 18.891 1.81413 19.2862 1.90052C19.721 1.98691 20.1162 1.72775 20.1952 1.25262C20.3138 0.820678 20.0371 0.388746 19.6024 0.259165ZM16.5198 0C16.1641 0 15.8479 0.345555 15.8479 0.734299C15.8479 1.12304 16.1246 1.46858 16.5198 1.46858C16.8755 1.46858 17.1916 1.12304 17.1916 0.734299C17.1521 0.302361 16.8755 0 16.5198 0ZM3.47784 16.4568C3.47784 15.4202 2.68743 14.5563 1.73892 14.5563C0.79042 14.5563 0 15.4202 0 16.4568C0 17.4935 0.79042 18.3573 1.73892 18.3573C2.72695 18.4005 3.47784 17.5367 3.47784 16.4568ZM3.87305 21.0353C3.59641 20.1715 2.76647 19.6963 1.97605 19.9987C1.18563 20.3011 0.750898 21.2081 1.02754 22.072C1.30419 22.9359 2.13413 23.411 2.92455 23.1086C3.71497 22.8495 4.1497 21.9856 3.87305 21.0353ZM5.41437 24.8364C5.01916 24.1885 4.22874 24.0589 3.63593 24.4908C3.04311 24.9228 2.92455 25.7867 3.31976 26.4346C3.71497 27.0825 4.54491 27.212 5.0982 26.7801C5.69102 26.3482 5.80958 25.4411 5.41437 24.8364ZM7.90419 27.86C7.42994 27.428 6.71856 27.5144 6.36287 28.0327C5.96766 28.551 6.04671 29.3285 6.52096 29.7173C6.99521 30.1492 7.70659 30.0628 8.1018 29.5445C8.45749 29.0262 8.37844 28.2919 7.90419 27.86ZM10.7892 29.9333C10.3545 29.7173 9.8012 29.9332 9.60359 30.4084C9.40599 30.8835 9.60359 31.4882 10.0383 31.7042C10.4731 31.9202 11.0263 31.7042 11.224 31.2291C11.4216 30.7539 11.224 30.1924 10.7892 29.9333ZM13.7138 31.0563C13.279 30.9699 12.8838 31.2723 12.8048 31.7042C12.7257 32.1793 13.0024 32.6113 13.3976 32.6977C13.7928 32.784 14.2275 32.5249 14.3066 32.0497C14.3856 31.6178 14.1485 31.1427 13.7138 31.0563ZM16.5198 31.5314C16.1641 31.5314 15.8479 31.877 15.8479 32.2657C15.8479 32.6545 16.1246 33 16.5198 33C16.8755 33 17.1916 32.6545 17.1916 32.2657C17.1916 31.8338 16.8755 31.5314 16.5198 31.5314ZM1.97605 12.9581C2.76647 13.2605 3.63593 12.7853 3.87305 11.9215C4.1497 11.0576 3.71497 10.1073 2.92455 9.84818C2.13413 9.54582 1.26467 10.0209 1.02754 10.8848C0.750898 11.7055 1.18563 12.6558 1.97605 12.9581ZM3.63593 8.46597C4.22874 8.89791 5.01916 8.72514 5.41437 8.12043C5.80958 7.47252 5.6515 6.60865 5.0982 6.17671C4.50539 5.74477 3.71497 5.91754 3.31976 6.52225C2.88503 7.17016 3.04311 8.03403 3.63593 8.46597ZM6.36287 4.92408C6.75808 5.44241 7.42994 5.5288 7.90419 5.09687C8.37844 4.66493 8.45749 3.93063 8.06228 3.4123C7.66707 2.89398 6.99521 2.80759 6.52096 3.23953C6.04671 3.62827 5.96766 4.40576 6.36287 4.92408ZM9.60359 2.54843C9.8012 3.02356 10.3545 3.23953 10.7892 3.02356C11.224 2.80759 11.4216 2.20288 11.224 1.72775C11.0263 1.25262 10.4731 1.03665 10.0383 1.25262C9.60359 1.46858 9.40599 2.0301 9.60359 2.54843ZM12.8048 1.25262C12.8838 1.72775 13.3186 1.98691 13.7138 1.90052C14.1485 1.81413 14.3856 1.3822 14.3066 0.907071C14.2275 0.43194 13.7928 0.172778 13.3976 0.259165C12.9629 0.388746 12.7257 0.820678 12.8048 1.25262ZM30.115 23.1518C30.9054 23.4542 31.7749 22.9791 32.012 22.1152C32.2886 21.2513 31.8539 20.301 31.0635 20.0419C30.2731 19.7395 29.4036 20.2147 29.1665 21.0785C28.8898 21.9856 29.3246 22.8495 30.115 23.1518ZM27.9413 26.7801C28.5341 27.212 29.3246 27.0393 29.7198 26.4346C30.115 25.7867 29.9569 24.9228 29.4036 24.4908C28.8108 24.0589 28.0204 24.1885 27.6252 24.8364C27.1904 25.4411 27.3485 26.3482 27.9413 26.7801ZM24.9377 29.5445C25.3329 30.0628 26.0443 30.1492 26.479 29.7173C26.9533 29.2854 27.0323 28.551 26.6371 28.0327C26.2419 27.5144 25.5701 27.428 25.0958 27.86C24.6216 28.2919 24.5425 29.0262 24.9377 29.5445ZM21.776 31.2291C21.9737 31.7474 22.5269 31.9202 22.9617 31.7042C23.3964 31.4882 23.594 30.8835 23.3964 30.4084C23.1988 29.9332 22.6455 29.7173 22.2108 29.9333C21.776 30.1492 21.5784 30.7539 21.776 31.2291ZM18.6934 32.0497C18.7725 32.5249 19.2072 32.8272 19.6024 32.6977C20.0371 32.6113 20.2743 32.1361 20.1952 31.7042C20.1162 31.2291 19.6814 30.9699 19.2862 31.0563C18.891 31.1427 18.6144 31.5746 18.6934 32.0497ZM27.5856 9.89136C27.2299 9.20026 26.4395 8.9411 25.7677 9.28665C25.1353 9.67539 24.8982 10.5825 25.2144 11.2736C25.5701 11.9647 26.3605 12.267 27.0323 11.8783C27.7042 11.4895 27.9413 10.5825 27.5856 9.89136ZM25.0563 6.47906C24.5425 5.96073 23.7916 6.00393 23.3174 6.52225C22.8431 7.08377 22.8826 7.90445 23.3964 8.42278C23.9102 8.9411 24.6611 8.8979 25.1353 8.37958C25.6096 7.81806 25.5701 6.95419 25.0563 6.47906ZM21.9737 4.40577C21.4599 4.10341 20.8275 4.36256 20.5509 4.92408C20.3138 5.4856 20.5114 6.1767 21.0251 6.43586C21.5389 6.69502 22.1713 6.47906 22.4479 5.91755C22.7246 5.35603 22.4874 4.70812 21.9737 4.40577ZM18.812 3.54189C18.3377 3.4555 17.8635 3.80105 17.7844 4.31937C17.7054 4.8377 18.0216 5.35602 18.4958 5.44241C18.9701 5.5288 19.4443 5.18325 19.5234 4.66493C19.6024 4.14661 19.2862 3.67147 18.812 3.54189ZM15.7689 3.67147C15.4132 3.71466 15.097 4.06022 15.1365 4.44896C15.176 4.8377 15.4922 5.18324 15.8479 5.14005C16.2431 5.09686 16.5198 4.75131 16.4802 4.31937C16.4407 3.97382 16.1246 3.67147 15.7689 3.67147ZM13.1605 4.36257C12.8443 4.44896 12.6862 4.8377 12.7653 5.18325C12.8443 5.5288 13.2 5.70157 13.4766 5.61518C13.7928 5.5288 13.9509 5.14006 13.8719 4.79451C13.7928 4.44896 13.4766 4.27618 13.1605 4.36257ZM10.9868 5.39922C10.7497 5.5288 10.6311 5.87435 10.7892 6.13351C10.9078 6.39268 11.224 6.52226 11.4611 6.34948C11.6982 6.2199 11.8168 5.87435 11.6587 5.61518C11.5401 5.35602 11.224 5.26963 10.9868 5.39922ZM7.78563 21.6833C7.42994 20.9922 6.63952 20.733 5.96766 21.1217C5.33533 21.5105 5.0982 22.3743 5.45389 23.1086C5.80958 23.7997 6.6 24.1021 7.27186 23.7134C7.90419 23.2814 8.14132 22.4175 7.78563 21.6833ZM9.64311 24.5772C9.12934 24.0589 8.37844 24.1021 7.90419 24.6204C7.42994 25.1819 7.46946 26.0026 7.94371 26.5209C8.45748 27.0393 9.20838 26.9961 9.68263 26.4778C10.1569 25.873 10.1174 25.0092 9.64311 24.5772ZM11.8958 26.4346C11.382 26.1754 10.7497 26.3914 10.4731 26.9529C10.2359 27.5144 10.4335 28.2055 10.9473 28.5079C11.4611 28.767 12.0934 28.5511 12.3701 27.9895C12.6072 27.428 12.4096 26.7369 11.8958 26.4346ZM14.5437 27.5144C14.0695 27.428 13.5952 27.7736 13.5162 28.2919C13.4371 28.8102 13.7533 29.3285 14.2275 29.4581C14.7018 29.5445 15.176 29.199 15.2551 28.6806C15.3737 28.1191 15.018 27.6008 14.5437 27.5144ZM17.1521 27.7736C16.7569 27.7736 16.4802 28.1623 16.5198 28.5511C16.5593 28.983 16.8754 29.2853 17.2311 29.2422C17.5868 29.199 17.903 28.8534 17.8635 28.4647C17.8635 28.0759 17.5473 27.7736 17.1521 27.7736ZM19.5234 27.3848C19.2072 27.4712 19.0491 27.86 19.1281 28.1623C19.2072 28.5079 19.5629 28.6806 19.879 28.5942C20.1952 28.5079 20.3533 28.1191 20.2743 27.7736C20.1557 27.4712 19.8395 27.2552 19.5234 27.3848ZM21.5389 26.5641C21.3018 26.6937 21.2228 27.0393 21.3413 27.2984C21.4599 27.5576 21.776 27.644 22.0132 27.5144C22.2503 27.3848 22.3689 27.0393 22.2108 26.7801C22.0922 26.5209 21.776 26.3914 21.5389 26.5641ZM5.57245 19.8259C6.16527 19.6963 6.52096 19.1348 6.4024 18.4869C6.28383 17.8822 5.77006 17.4503 5.17725 17.5798C4.62395 17.7094 4.22874 18.271 4.34731 18.9189C4.42635 19.4804 4.97964 19.9123 5.57245 19.8259ZM5.21677 16.1113C5.69102 16.1545 6.12575 15.8089 6.16527 15.2906C6.20479 14.7723 5.8491 14.2971 5.37485 14.2539C4.9006 14.2107 4.50539 14.5563 4.42635 15.0746C4.38683 15.5929 4.74252 16.0681 5.21677 16.1113ZM5.8491 12.7421C6.24431 12.9149 6.71856 12.699 6.91617 12.2238C7.07425 11.7919 6.87665 11.2736 6.48144 11.0576C6.04671 10.8848 5.61198 11.1008 5.41437 11.5327C5.25629 12.0511 5.45389 12.5694 5.8491 12.7421ZM7.23234 9.89136C7.5485 10.1505 7.98323 10.0641 8.18084 9.71859C8.41796 9.37304 8.33892 8.9411 8.06228 8.68194C7.74611 8.42278 7.31138 8.50916 7.11377 8.81152C6.83713 9.15707 6.91617 9.6322 7.23234 9.89136ZM8.93174 7.73167C9.16886 7.99084 9.52455 8.03403 9.76168 7.81807C9.9988 7.5589 10.0383 7.17016 9.84072 6.911C9.64311 6.65183 9.2479 6.60865 9.01078 6.82462C8.73413 7.08378 8.73413 7.47251 8.93174 7.73167ZM27.8228 15.4202C28.376 15.3338 28.7713 14.7291 28.6527 14.0812C28.5737 13.4764 28.0204 13.0445 27.4275 13.1741C26.8743 13.3037 26.479 13.8652 26.5976 14.5131C26.7162 15.1178 27.2695 15.5497 27.8228 15.4202ZM27.6252 18.7029C28.0994 18.7461 28.5341 18.4005 28.5737 17.8822C28.6132 17.3639 28.297 16.8887 27.8228 16.8456C27.3485 16.8024 26.9138 17.1479 26.8743 17.6662C26.7952 18.1846 27.1509 18.6597 27.6252 18.7029ZM26.5581 21.856C26.9928 22.0288 27.4671 21.8128 27.6252 21.3809C27.7832 20.9058 27.5856 20.4306 27.1904 20.2147C26.7952 20.0419 26.321 20.2579 26.1234 20.6898C25.9257 21.1649 26.1234 21.6833 26.5581 21.856ZM24.9772 24.2749C25.2934 24.534 25.7281 24.4477 25.9257 24.1021C26.1629 23.7566 26.0838 23.3246 25.8072 23.0654C25.491 22.8063 25.0563 22.8927 24.8587 23.2382C24.6216 23.5406 24.6611 24.0157 24.9772 24.2749ZM23.1593 26.0458C23.3569 26.305 23.7521 26.3482 23.9892 26.1322C24.2263 25.9162 24.2659 25.4843 24.0683 25.2251C23.8707 24.966 23.4755 24.9228 23.2383 25.1388C23.0012 25.3547 22.9617 25.7867 23.1593 26.0458ZM23.0407 9.37304C22.5269 8.85472 21.776 8.81152 21.2623 9.37304C20.788 9.89137 20.788 10.7552 21.2623 11.2736C21.7365 11.7919 22.5269 11.8351 23.0407 11.2736C23.515 10.7552 23.5545 9.89137 23.0407 9.37304ZM19.9186 7.29974C19.3653 7.04057 18.6934 7.34293 18.4563 7.94764C18.2192 8.55235 18.4958 9.32985 19.0886 9.54582C19.6814 9.80498 20.3138 9.50262 20.5509 8.85471C20.7485 8.20681 20.4719 7.51571 19.9186 7.29974ZM16.5198 6.8678C15.9665 6.8678 15.5317 7.34293 15.5317 7.94764C15.5317 8.50916 15.9665 9.02748 16.5198 9.02748C17.0335 9.02748 17.5078 8.55235 17.5078 7.94764C17.5078 7.29974 17.0731 6.8678 16.5198 6.8678ZM13.279 7.90446C12.8838 8.07723 12.7257 8.55236 12.8838 8.94111C13.0419 9.37304 13.4766 9.54582 13.8719 9.41624C14.2671 9.24346 14.4251 8.76833 14.2671 8.3364C14.0695 7.90446 13.6347 7.73168 13.279 7.90446ZM11.6982 21.6833C11.224 21.1649 10.4335 21.1649 9.95928 21.6833C9.44551 22.2448 9.44551 23.0655 9.91976 23.627C10.4335 24.1453 11.1844 24.1453 11.6982 23.627C12.1725 23.0655 12.1725 22.2016 11.6982 21.6833ZM13.9114 23.4542C13.3186 23.195 12.6862 23.4974 12.4491 24.1453C12.212 24.75 12.5281 25.4843 13.0814 25.7435C13.6347 26.0026 14.3066 25.7003 14.5437 25.0956C14.7808 24.4045 14.5042 23.7134 13.9114 23.4542ZM16.4802 24.0157C15.9269 24.0157 15.4922 24.4908 15.4922 25.0956C15.4922 25.7003 15.9269 26.1754 16.4802 26.1754C17.0335 26.1754 17.4683 25.7003 17.4683 25.0956C17.4683 24.4908 17.0335 24.0157 16.4802 24.0157ZM19.1677 23.5838C18.812 23.7565 18.6144 24.1885 18.7725 24.6204C18.9305 25.0092 19.3653 25.2251 19.721 25.0524C20.0766 24.8796 20.2743 24.4045 20.1162 24.0157C19.9581 23.5838 19.5234 23.411 19.1677 23.5838ZM9.40599 20.733C9.95928 20.517 10.2359 19.8691 9.9988 19.2212C9.8012 18.6165 9.16886 18.3573 8.65509 18.5733C8.1018 18.7893 7.86467 19.4804 8.06228 20.0419C8.2994 20.6898 8.89222 20.949 9.40599 20.733ZM8.61557 17.2343C9.0503 17.2343 9.40599 16.8455 9.44551 16.3704C9.44551 15.8953 9.08982 15.5066 8.65509 15.4634C8.18084 15.4634 7.82515 15.8521 7.82515 16.3272C7.78563 16.8024 8.18084 17.2343 8.61557 17.2343ZM9.08982 13.9084C9.44551 14.038 9.84072 13.8652 9.9988 13.5196C10.1569 13.1309 9.95928 12.699 9.64311 12.5262C9.28743 12.3534 8.89222 12.5694 8.77365 12.9149C8.57605 13.3469 8.73413 13.7788 9.08982 13.9084ZM24.3054 14.3835C24.8587 14.1675 25.0958 13.4764 24.8982 12.9149C24.7006 12.3534 24.1078 12.051 23.5545 12.267C23.0012 12.483 22.7246 13.1741 22.9617 13.7356C23.1593 14.3403 23.7916 14.6427 24.3054 14.3835ZM24.3449 17.5367C24.7796 17.5367 25.1748 17.1479 25.1748 16.6728C25.1748 16.1976 24.8192 15.7657 24.3844 15.7657C23.9497 15.7657 23.5545 16.1545 23.5545 16.6296C23.5545 17.1047 23.9102 17.4935 24.3449 17.5367ZM23.3569 20.4306C23.7126 20.6034 24.1078 20.3874 24.2659 20.0419C24.424 19.6531 24.2263 19.2212 23.9102 19.0916C23.5545 18.9189 23.1593 19.0916 23.0407 19.4804C22.8826 19.8259 23.0407 20.3011 23.3569 20.4306ZM10.5521 11.0144C10.8287 11.3168 11.2635 11.3168 11.5006 11.0144C11.7377 10.712 11.7772 10.2801 11.5006 9.97775C11.224 9.6754 10.7892 9.6754 10.5521 9.97775C10.315 10.2369 10.315 10.7552 10.5521 11.0144ZM21.4599 23.0223C21.7365 23.3246 22.1713 23.3246 22.4084 23.0223C22.685 22.7631 22.685 22.288 22.4084 21.9856C22.1713 21.6832 21.697 21.6832 21.4599 21.9856C21.2228 22.2448 21.2228 22.7199 21.4599 23.0223ZM15.2551 10.2369C14.7018 10.3665 14.3856 10.928 14.5042 11.4895C14.6228 12.0511 15.1365 12.4398 15.6898 12.3102C16.2036 12.1806 16.5198 11.6191 16.4407 11.0576C16.2826 10.4529 15.7293 10.1073 15.2551 10.2369ZM12.4096 11.9647C12.0539 12.3534 12.0539 13.0013 12.4096 13.3901C12.7653 13.7788 13.3581 13.7788 13.7533 13.3901C14.109 13.0013 14.109 12.3534 13.7533 11.9647C13.3581 11.6191 12.7653 11.6191 12.4096 11.9647ZM11.224 14.945C11.1449 15.3338 11.3425 15.6793 11.6587 15.8089C11.9749 15.8953 12.3305 15.6793 12.4096 15.3338C12.4886 14.9882 12.291 14.5995 11.9749 14.5131C11.6587 14.3835 11.3425 14.6427 11.224 14.945ZM17.3892 20.733C16.8754 20.8626 16.5198 21.4241 16.6778 21.9856C16.7964 22.5471 17.3102 22.9359 17.824 22.8063C18.3377 22.6767 18.6539 22.1152 18.5749 21.5537C18.4168 20.949 17.903 20.6034 17.3892 20.733ZM19.3257 19.6099C18.9701 19.9987 18.9701 20.6466 19.3257 21.0785C19.6814 21.4673 20.2743 21.4673 20.6299 21.0785C21.0251 20.6898 21.0252 20.0419 20.6695 19.6531C20.2743 19.2212 19.6814 19.2212 19.3257 19.6099ZM20.5904 17.7094C20.5114 18.0982 20.6695 18.4437 21.0251 18.5733C21.3808 18.6597 21.697 18.4437 21.8156 18.0982C21.8946 17.7526 21.697 17.3639 21.3808 17.2775C21.0251 17.1047 20.6695 17.3639 20.5904 17.7094ZM19.0491 11.7919C19.2072 11.3168 19.0096 10.7552 18.5353 10.5825C18.0611 10.4097 17.5868 10.6257 17.4287 11.144C17.2707 11.6191 17.5078 12.1374 17.9425 12.3534C18.4168 12.5262 18.891 12.3102 19.0491 11.7919ZM15.6108 21.8992C15.8084 21.4241 15.5713 20.8626 15.1365 20.6898C14.6623 20.4738 14.188 20.733 14.0299 21.2513C13.8719 21.7264 14.109 22.2448 14.5437 22.4607C14.9389 22.6335 15.4132 22.4175 15.6108 21.8992ZM20.709 13.7788C20.9856 13.5196 21.0251 13.0877 20.8275 12.7853C20.5904 12.483 20.1952 12.4398 19.9186 12.6558C19.6419 12.8717 19.6024 13.3037 19.8395 13.606C20.0371 13.9516 20.4323 14.038 20.709 13.7788ZM13.121 20.301C13.3976 20.0419 13.4371 19.61 13.2395 19.3076C13.0024 19.0052 12.6072 18.962 12.3305 19.178C12.0539 19.394 12.0144 19.8259 12.2515 20.1283C12.4096 20.4738 12.8443 20.5602 13.121 20.301ZM21.3018 15.9385C21.5389 15.8953 21.697 15.6361 21.6575 15.3338C21.618 15.0746 21.3413 14.8586 21.1042 14.945C20.8671 14.9882 20.709 15.2474 20.7485 15.5065C20.788 15.8089 21.0252 16.0249 21.3018 15.9385ZM11.9749 18.0982C12.212 18.055 12.3701 17.7958 12.3305 17.4935C12.291 17.2343 12.0539 17.0183 11.7772 17.1047C11.5006 17.1479 11.382 17.4071 11.4216 17.6662C11.5006 17.9254 11.7377 18.1414 11.9749 18.0982Z" fill="white"/>
</svg>
