<svg id="wave" style="transform:rotate(0deg); transition: 0.3s" viewBox="0 0 1440 130" version="1.1" xmlns="http://www.w3.org/2000/svg"><defs><linearGradient id="sw-gradient-0" x1="0" x2="0" y1="1" y2="0"><stop stop-color="rgba(240, 240, 240, 0.79)" offset="0%"></stop><stop stop-color="rgba(240, 240, 240, 0.8)" offset="100%"></stop></linearGradient></defs><path style="transform:translate(0, 0px); opacity:1" fill="url(#sw-gradient-0)" d="M0,39L30,41.2C60,43,120,48,180,56.3C240,65,300,78,360,75.8C420,74,480,56,540,52C600,48,660,56,720,56.3C780,56,840,48,900,52C960,56,1020,74,1080,75.8C1140,78,1200,65,1260,56.3C1320,48,1380,43,1440,41.2C1500,39,1560,39,1620,45.5C1680,52,1740,65,1800,67.2C1860,69,1920,61,1980,47.7C2040,35,2100,17,2160,21.7C2220,26,2280,52,2340,69.3C2400,87,2460,95,2520,95.3C2580,95,2640,87,2700,88.8C2760,91,2820,104,2880,99.7C2940,95,3000,74,3060,58.5C3120,43,3180,35,3240,36.8C3300,39,3360,52,3420,56.3C3480,61,3540,56,3600,62.8C3660,69,3720,87,3780,93.2C3840,100,3900,95,3960,93.2C4020,91,4080,91,4140,80.2C4200,69,4260,48,4290,36.8L4320,26L4320,130L4290,130C4260,130,4200,130,4140,130C4080,130,4020,130,3960,130C3900,130,3840,130,3780,130C3720,130,3660,130,3600,130C3540,130,3480,130,3420,130C3360,130,3300,130,3240,130C3180,130,3120,130,3060,130C3000,130,2940,130,2880,130C2820,130,2760,130,2700,130C2640,130,2580,130,2520,130C2460,130,2400,130,2340,130C2280,130,2220,130,2160,130C2100,130,2040,130,1980,130C1920,130,1860,130,1800,130C1740,130,1680,130,1620,130C1560,130,1500,130,1440,130C1380,130,1320,130,1260,130C1200,130,1140,130,1080,130C1020,130,960,130,900,130C840,130,780,130,720,130C660,130,600,130,540,130C480,130,420,130,360,130C300,130,240,130,180,130C120,130,60,130,30,130L0,130Z"></path><defs><linearGradient id="sw-gradient-1" x1="0" x2="0" y1="1" y2="0"><stop stop-color="rgba(240, 240, 240, 1)" offset="0%"></stop><stop stop-color="rgba(240, 240, 240, 1)" offset="100%"></stop></linearGradient></defs><path style="transform:translate(0, 50px); opacity:0.9" fill="url(#sw-gradient-1)" d="M0,39L30,45.5C60,52,120,65,180,65C240,65,300,52,360,41.2C420,30,480,22,540,26C600,30,660,48,720,54.2C780,61,840,56,900,56.3C960,56,1020,61,1080,58.5C1140,56,1200,48,1260,49.8C1320,52,1380,65,1440,62.8C1500,61,1560,43,1620,43.3C1680,43,1740,61,1800,67.2C1860,74,1920,69,1980,73.7C2040,78,2100,91,2160,88.8C2220,87,2280,69,2340,62.8C2400,56,2460,61,2520,56.3C2580,52,2640,39,2700,30.3C2760,22,2820,17,2880,19.5C2940,22,3000,30,3060,39C3120,48,3180,56,3240,52C3300,48,3360,30,3420,26C3480,22,3540,30,3600,43.3C3660,56,3720,74,3780,80.2C3840,87,3900,82,3960,71.5C4020,61,4080,43,4140,39C4200,35,4260,43,4290,47.7L4320,52L4320,130L4290,130C4260,130,4200,130,4140,130C4080,130,4020,130,3960,130C3900,130,3840,130,3780,130C3720,130,3660,130,3600,130C3540,130,3480,130,3420,130C3360,130,3300,130,3240,130C3180,130,3120,130,3060,130C3000,130,2940,130,2880,130C2820,130,2760,130,2700,130C2640,130,2580,130,2520,130C2460,130,2400,130,2340,130C2280,130,2220,130,2160,130C2100,130,2040,130,1980,130C1920,130,1860,130,1800,130C1740,130,1680,130,1620,130C1560,130,1500,130,1440,130C1380,130,1320,130,1260,130C1200,130,1140,130,1080,130C1020,130,960,130,900,130C840,130,780,130,720,130C660,130,600,130,540,130C480,130,420,130,360,130C300,130,240,130,180,130C120,130,60,130,30,130L0,130Z"></path></svg>