<?xml version="1.0" standalone="no"?><svg xmlns="http://www.w3.org/2000/svg" viewBox="0 0 1440 320"><path fill="#f0f0f0" fill-opacity="1" d="M0,128L40,117.3C80,107,160,85,240,112C320,139,400,213,480,224C560,235,640,181,720,176C800,171,880,213,960,234.7C1040,256,1120,256,1200,245.3C1280,235,1360,213,1400,202.7L1440,192L1440,320L1400,320C1360,320,1280,320,1200,320C1120,320,1040,320,960,320C880,320,800,320,720,320C640,320,560,320,480,320C400,320,320,320,240,320C160,320,80,320,40,320L0,320Z"></path></svg>